# xmcd
#
# Track frame offsets: 
#        150
#        16600
#        34954
#        50850
#        68698
#        85319
#        102180
#        120966
#        139751
#        154299
#        169380
#        189429
#        212006
#        229536
#
# Disc length: 3245 seconds
#
# Revision: 0
# Processed by: cddbd v1.5.1PL2 Copyright (c) Steve Scherf et al.
# Submitted via: ExactAudioCopy v0.95a5
#
DISCID=b70cab0e
DTITLE=Павло Дворский - Буковинське танго
DYEAR=2000
DGENRE=Ballad
TTITLE0=Буковинське танго
TTITLE1=Срібні Очі 
TTITLE2=Сама Здогадайся 
TTITLE3=Наша Розмова 
TTITLE4=Чарівна Горянка 
TTITLE5=Не Забудь Мене 
TTITLE6=Писанка 
TTITLE7=Ніхто Так Не Любив 
TTITLE8=Кохання У Львові 
TTITLE9=Зустріч У Дорозі 
TTITLE10=Поїзд о 20їй 
TTITLE11=Не Відлітай 
TTITLE12=Стожари 
TTITLE13=Задивлюсь У Твої Очі 
EXTD=
EXTT0=
EXTT1=
EXTT2=
EXTT3=
EXTT4=
EXTT5=
EXTT6=
EXTT7=
EXTT8=
EXTT9=
EXTT10=
EXTT11=
EXTT12=
EXTT13=
PLAYORDER=
